<svg width="44" height="45" viewBox="0 0 44 45" fill="none" xmlns="http://www.w3.org/2000/svg">
<path d="M38.1126 37.1017C19.9248 45.7575 8.63724 38.5155 1.41172 34.1168C0.964604 33.8396 0.204669 34.1816 0.864017 34.9389C3.2712 37.8577 11.16 44.8927 21.4573 44.8927C31.7616 44.8927 37.8917 39.2702 38.6586 38.2894C39.4202 37.3169 38.8822 36.7804 38.1124 37.1017H38.1126ZM43.2206 34.2808C42.7322 33.6448 40.2507 33.5262 38.689 33.7181C37.1249 33.9044 34.7771 34.8603 34.9813 35.4343C35.086 35.6493 35.2998 35.5528 36.3743 35.4562C37.4517 35.3487 40.47 34.9678 41.0989 35.7899C41.7308 36.6178 40.1363 40.5614 39.845 41.1974C39.5637 41.8334 39.9525 41.9974 40.4811 41.5738C41.0023 41.1504 41.946 40.0538 42.5792 38.502C43.2081 36.9417 43.5917 34.7651 43.2204 34.2808H43.2206Z" fill="white"/>
<path fill-rule="evenodd" clip-rule="evenodd" d="M25.8831 19.4395C25.8831 21.7106 25.9405 23.6047 24.7926 25.6216C23.866 27.2616 22.3984 28.27 20.7585 28.27C18.5201 28.27 17.2164 26.5646 17.2164 24.0475C17.2164 19.0786 21.6685 18.1768 25.8831 18.1768V19.4395ZM31.7619 33.6489C31.3765 33.9931 30.819 34.0178 30.3845 33.7882C28.4495 32.1812 28.105 31.4351 27.0392 29.9017C23.8415 33.1651 21.5785 34.1407 17.4297 34.1407C12.5265 34.1407 8.70557 31.1152 8.70557 25.0559C8.70557 20.325 11.2721 17.1026 14.9205 15.5285C18.0856 14.1344 22.505 13.8885 25.8831 13.5033V12.7489C25.8831 11.3631 25.9896 9.72329 25.178 8.52626C24.4645 7.45213 23.1035 7.00933 21.9063 7.00933C19.6844 7.00933 17.7001 8.14898 17.2164 10.5104C17.1179 11.0352 16.7326 11.5518 16.2079 11.5764L10.5504 10.9697C10.0749 10.8629 9.55019 10.4777 9.68136 9.74783C10.985 2.89338 17.1753 0.827026 22.7179 0.827026C25.5549 0.827026 29.2609 1.58143 31.4994 3.72971C34.3364 6.37799 34.0658 9.91184 34.0658 13.7573V22.8421C34.0658 25.5725 35.1973 26.7695 36.2631 28.2455C36.6402 28.7702 36.7223 29.4017 36.2467 29.7951C35.0578 30.7871 32.9424 32.6321 31.7782 33.6653L31.7618 33.6489" fill="white"/>
<path d="M38.1126 37.1017C19.9248 45.7575 8.63724 38.5155 1.41172 34.1168C0.964604 33.8396 0.204669 34.1816 0.864017 34.9389C3.2712 37.8577 11.16 44.8927 21.4573 44.8927C31.7616 44.8927 37.8917 39.2702 38.6586 38.2894C39.4202 37.3169 38.8822 36.7804 38.1124 37.1017H38.1126ZM43.2206 34.2808C42.7322 33.6448 40.2507 33.5262 38.689 33.7181C37.1249 33.9044 34.7771 34.8603 34.9813 35.4343C35.086 35.6493 35.2998 35.5528 36.3743 35.4562C37.4517 35.3487 40.47 34.9678 41.0989 35.7899C41.7308 36.6178 40.1363 40.5614 39.845 41.1974C39.5637 41.8334 39.9525 41.9974 40.4811 41.5738C41.0023 41.1504 41.946 40.0538 42.5792 38.502C43.2081 36.9417 43.5917 34.7651 43.2204 34.2808H43.2206Z" fill="white"/>
<path fill-rule="evenodd" clip-rule="evenodd" d="M25.8831 19.4395C25.8831 21.7106 25.9405 23.6047 24.7926 25.6216C23.866 27.2616 22.3984 28.27 20.7585 28.27C18.5201 28.27 17.2164 26.5646 17.2164 24.0475C17.2164 19.0786 21.6685 18.1768 25.8831 18.1768V19.4395ZM31.7619 33.6489C31.3765 33.9931 30.819 34.0178 30.3845 33.7882C28.4495 32.1812 28.105 31.4351 27.0392 29.9017C23.8415 33.1651 21.5785 34.1407 17.4297 34.1407C12.5265 34.1407 8.70557 31.1152 8.70557 25.0559C8.70557 20.325 11.2721 17.1026 14.9205 15.5285C18.0856 14.1344 22.505 13.8885 25.8831 13.5033V12.7489C25.8831 11.3631 25.9896 9.72329 25.178 8.52626C24.4645 7.45213 23.1035 7.00933 21.9063 7.00933C19.6844 7.00933 17.7001 8.14898 17.2164 10.5104C17.1179 11.0352 16.7326 11.5518 16.2079 11.5764L10.5504 10.9697C10.0749 10.8629 9.55019 10.4777 9.68136 9.74783C10.985 2.89338 17.1753 0.827026 22.7179 0.827026C25.5549 0.827026 29.2609 1.58143 31.4994 3.72971C34.3364 6.37799 34.0658 9.91184 34.0658 13.7573V22.8421C34.0658 25.5725 35.1973 26.7695 36.2631 28.2455C36.6402 28.7702 36.7223 29.4017 36.2467 29.7951C35.0578 30.7871 32.9424 32.6321 31.7782 33.6653L31.7618 33.6489" fill="white"/>
</svg>
