<svg width="24" height="25" viewBox="0 0 24 25" fill="none" xmlns="http://www.w3.org/2000/svg">
<g opacity="0.5">
<path d="M12.7018 24.8199C12.2331 24.8199 11.7643 24.8199 11.2956 24.8199C11.22 24.8055 11.1444 24.7886 11.0681 24.778C10.5437 24.7024 10.0125 24.6599 9.49565 24.5474C6.62323 23.923 4.27704 22.4418 2.48833 20.1144C0.562133 17.6088 -0.238471 14.7558 0.0633962 11.6165C0.30714 9.08154 1.29024 6.8416 2.97582 4.92728C4.83577 2.81608 7.15571 1.50112 9.93126 1.00676C10.3825 0.926132 10.8406 0.881134 11.2956 0.819885C11.7643 0.819885 12.2331 0.819885 12.7018 0.819885C12.7618 0.83301 12.8218 0.854259 12.8824 0.858634C14.7593 0.991131 16.5155 1.52799 18.1179 2.50984C21.2266 4.41479 23.1397 7.1616 23.8115 10.7553C23.8953 11.2052 23.9371 11.6627 23.9984 12.1165C23.9984 12.5852 23.9984 13.0539 23.9984 13.5227C23.979 13.6914 23.9596 13.8602 23.9409 14.0283C23.6534 16.6107 22.6672 18.8882 20.9272 20.8194C19.0792 22.8699 16.7898 24.1499 14.0655 24.6324C13.6143 24.713 13.1568 24.7586 12.7018 24.8199ZM12.0012 2.82483C6.48948 2.82171 1.99897 7.31284 2.00335 12.8233C2.00772 18.3319 6.46823 22.7968 11.9843 22.8149C17.4848 22.8331 21.9828 18.3451 21.9935 12.8277C22.0047 7.32222 17.5148 2.82796 12.0012 2.82483Z" fill="#142352"/>
<path d="M17.5748 7.24973C17.2205 8.31532 16.8799 9.34342 16.5374 10.3703C15.978 12.049 15.4162 13.7271 14.8599 15.407C14.8149 15.542 14.7549 15.6276 14.6093 15.6758C11.9456 16.5589 9.28381 17.4476 6.62138 18.3344C6.57013 18.3513 6.51763 18.3638 6.43701 18.3863C6.46264 18.2963 6.47951 18.2244 6.50263 18.1551C7.38136 15.5145 8.26196 12.8746 9.13819 10.2334C9.18319 10.0984 9.24319 10.0128 9.38881 9.96465C12.0525 9.08155 14.7143 8.19283 17.3767 7.30597C17.4274 7.2891 17.4798 7.2766 17.5748 7.24973ZM9.5888 15.2158C9.66068 15.2033 9.6913 15.202 9.7188 15.1926C10.835 14.8214 11.9525 14.4533 13.0656 14.072C13.1481 14.0439 13.2325 13.9383 13.2625 13.8502C13.6274 12.7808 13.9824 11.709 14.3393 10.6371C14.3599 10.5753 14.3712 10.5096 14.3937 10.4203C14.2912 10.449 14.2174 10.4665 14.1456 10.4909C13.2068 10.8028 12.2744 11.1365 11.3263 11.419C10.9275 11.5377 10.7194 11.7327 10.5994 12.1396C10.2969 13.1614 9.93755 14.1664 9.5888 15.2158Z" fill="#142352"/>
</g>
</svg>
