<svg width="39" height="34" viewBox="0 0 39 34" fill="none" xmlns="http://www.w3.org/2000/svg">
<path d="M38.3657 23.7588C36.7881 26.6745 35.2018 29.5852 33.6419 32.5106C33.3222 33.1097 32.9039 33.3726 32.2178 33.3707C24.938 33.356 17.6593 33.3619 10.3795 33.3619C10.2486 33.3619 10.1176 33.3619 9.94263 33.3619C10.0091 33.227 10.0501 33.1293 10.1029 33.0384C12.1037 29.5725 14.1083 26.1085 16.1032 22.6397C16.2225 22.4335 16.3486 22.3592 16.588 22.3602C23.4279 22.367 30.2678 22.3699 37.1068 22.3592C37.7294 22.3582 38.1057 22.6524 38.3637 23.1714C38.3657 23.3679 38.3657 23.5634 38.3657 23.7588Z" fill="white"/>
<path d="M12.1254 3.70438C12.2104 3.83633 12.2779 3.93211 12.3365 4.03376C14.2669 7.37161 16.1934 10.7114 18.1306 14.0444C18.2655 14.276 18.2625 14.4393 18.1286 14.669C14.6598 20.6546 11.1998 26.6451 7.73779 32.6337C7.37126 33.2671 6.87082 33.5232 6.33032 33.2817C6.08206 33.1713 5.82402 32.9563 5.695 32.7207C4.11844 29.8432 2.56631 26.952 1.00539 24.0658C0.774724 23.6396 0.793294 23.2379 1.03667 22.8186C4.6824 16.527 8.32521 10.2335 11.969 3.93993C12.01 3.87054 12.0589 3.80505 12.1254 3.70438Z" fill="white"/>
<path d="M36.6143 20.1669C36.4481 20.1669 36.3396 20.1669 36.2311 20.1669C32.3469 20.1669 28.4627 20.1649 24.5785 20.1727C24.339 20.1737 24.2119 20.0994 24.0927 19.8932C20.6864 13.9838 17.2723 8.07827 13.8612 2.17179C13.4165 1.40257 13.6853 0.6138 14.4584 0.413431C14.5864 0.380199 14.7242 0.376289 14.8572 0.376289C18.0328 0.374335 21.2093 0.378244 24.3849 0.371402C24.9147 0.370425 25.2871 0.576658 25.553 1.03604C29.1928 7.33153 32.8386 13.6241 36.4823 19.9176C36.5175 19.9792 36.5488 20.0437 36.6143 20.1669Z" fill="white"/>
</svg>
