<svg width="16" height="11" viewBox="0 0 16 11" fill="none" xmlns="http://www.w3.org/2000/svg">
<path d="M15.3655 5.54634C15.2734 5.90615 15.0148 6.15424 14.7788 6.41596C13.8221 7.47724 12.7547 8.40519 11.5048 9.10968C10.6136 9.61191 9.66899 9.95658 8.64407 10.0505C7.6559 10.141 6.70105 9.98802 5.77916 9.62782C4.47245 9.11763 3.35019 8.32149 2.34156 7.3621C1.89652 6.93902 1.48216 6.48224 1.07235 6.02395C0.735254 5.64746 0.727679 5.14447 1.04243 4.7642C2.11734 3.46545 3.35474 2.35569 4.85082 1.55727C5.75264 1.07587 6.70522 0.753169 7.73392 0.688402C8.88723 0.615681 9.96745 0.891794 10.9988 1.38645C12.3263 2.02314 13.4513 2.93216 14.4622 3.9904C14.6061 4.14077 14.7432 4.29795 14.883 4.45211C15.0856 4.67633 15.2867 4.90169 15.3659 5.20508C15.3655 5.31908 15.3655 5.43271 15.3655 5.54634ZM11.2253 5.37287C11.223 3.64005 9.82238 2.2432 8.08919 2.24547C6.35676 2.24774 4.95801 3.6499 4.96142 5.38082C4.96483 7.11363 6.36774 8.51314 8.09715 8.50935C9.83034 8.50594 11.2276 7.10454 11.2253 5.37287Z" fill="white"/>
<path d="M8.08885 7.61775C6.85675 7.61547 5.85077 6.60533 5.85305 5.37248C5.85532 4.14 6.86584 3.13365 8.09832 3.1363C9.33117 3.13895 10.3371 4.14947 10.3345 5.38157C10.3311 6.61442 9.3217 7.62002 8.08885 7.61775Z" fill="white"/>
</svg>
