<svg width="20" height="20" viewBox="0 0 20 20" fill="none" xmlns="http://www.w3.org/2000/svg">
<path d="M15.391 19.9978C11.798 19.9978 8.20503 19.9978 4.61143 19.9978C4.23737 19.9185 3.85232 19.8727 3.49046 19.7549C1.38824 19.0715 0.0115833 17.1834 0.00548112 14.9653C-0.00367221 11.653 0.000599345 8.34012 0.00426067 5.02722C0.00548112 3.95567 0.30449 2.97017 0.941561 2.10548C1.97772 0.698312 3.38367 0.00388018 5.1289 0.00204952C8.35026 -0.00100159 11.5716 -0.00100159 14.7936 0.0044904C15.1304 0.00510063 15.4728 0.0197459 15.8035 0.0801579C17.6513 0.41639 18.94 1.46597 19.6449 3.20022C19.8255 3.64446 19.8847 4.13874 20 4.60983C20 8.20282 20 11.7958 20 15.3894C19.975 15.5291 19.9518 15.6689 19.9256 15.808C19.5796 17.6436 18.5397 18.9287 16.8195 19.6365C16.3692 19.8214 15.8682 19.8806 15.391 19.9978ZM18.3213 9.99992C18.3237 9.99992 18.3262 9.99992 18.3286 9.99992C18.3286 8.37307 18.3256 6.74561 18.3304 5.11876C18.3317 4.59763 18.2615 4.09114 18.029 3.62249C17.398 2.3514 16.3686 1.67955 14.9468 1.67467C11.6473 1.66307 8.34721 1.6704 5.04774 1.67284C4.85369 1.67284 4.65781 1.69114 4.46559 1.7186C2.95102 1.93218 1.69702 3.30152 1.68725 4.835C1.66467 8.23882 1.6781 11.6426 1.67627 15.0465C1.67627 15.509 1.76658 15.9551 1.97039 16.3682C2.60991 17.6637 3.65827 18.3252 5.10571 18.3276C8.36613 18.3325 11.6272 18.3301 14.8876 18.327C15.1079 18.327 15.3294 18.3099 15.5478 18.28C17.0331 18.0762 18.2963 16.6916 18.3164 15.1941C18.339 13.4623 18.3213 11.7311 18.3213 9.99992Z" fill="white"/>
<path d="M9.97897 14.9977C7.21162 14.9739 4.97028 12.7081 5.00323 9.96699C5.03618 7.20146 7.28424 4.97782 10.0235 5.001C12.7909 5.02419 15.0328 7.28995 14.9999 10.0311C14.9663 12.7954 12.7164 15.0215 9.97897 14.9977ZM10.0052 13.3281C11.8469 13.3244 13.3285 11.841 13.3291 10.0005C13.3297 8.16012 11.8493 6.67667 10.0064 6.67179C8.16112 6.66691 6.66364 8.16561 6.67279 10.0091C6.68195 11.8526 8.16662 13.3317 10.0052 13.3281Z" fill="white"/>
<path d="M15.4087 5.82723C14.721 5.82235 14.1743 5.27193 14.1736 4.58421C14.1736 3.89222 14.743 3.32471 15.4264 3.33509C16.1105 3.34546 16.6664 3.90503 16.6676 4.58299C16.6682 5.26949 16.0995 5.83211 15.4087 5.82723Z" fill="white"/>
</svg>
