<svg width="26" height="26" viewBox="0 0 26 26" fill="none" xmlns="http://www.w3.org/2000/svg">
<path d="M26.0005 13.762C25.933 14.2627 25.8822 14.7665 25.7953 15.2636C25.4825 17.0537 24.8076 18.7016 23.7981 20.2108C23.4746 20.6943 22.8606 20.8085 22.3904 20.4962C21.9242 20.1864 21.7922 19.5801 22.1141 19.087C22.9317 17.8327 23.5371 16.487 23.7727 15.0056C24.4801 10.5531 23.0384 6.91705 19.4775 4.17075C17.4351 2.59548 15.0615 1.93836 12.4874 2.04195C7.45382 2.24458 3.1419 6.00754 2.22274 10.9837C1.21166 16.4595 4.41501 21.8145 9.72785 23.4604C12.8042 24.4136 15.7587 24.051 18.5574 22.4554C18.8224 22.3041 19.0896 22.1954 19.3998 22.2619C19.8173 22.3518 20.1301 22.6733 20.2022 23.0826C20.2753 23.4975 20.0895 23.9037 19.703 24.1383C18.6264 24.7924 17.4803 25.2926 16.2544 25.5785C15.516 25.7507 14.7568 25.8329 14.0073 25.9563C13.9418 25.967 13.8773 25.9853 13.8123 26C13.2704 26 12.7291 26 12.1872 26C12.1222 25.9858 12.0577 25.967 11.9922 25.9573C11.3823 25.868 10.7653 25.8131 10.163 25.6862C5.12291 24.6248 1.03697 20.3464 0.200082 15.2656C0.120862 14.7837 0.0660169 14.2972 0 13.8128C0 13.2709 0 12.7296 0 12.1877C0.0147268 12.1141 0.0325006 12.041 0.0436727 11.9668C0.130003 11.3818 0.185355 10.7912 0.305201 10.2133C1.35436 5.14424 5.63429 1.039 10.7349 0.200082C11.2168 0.120862 11.7033 0.0660169 12.1877 0C12.7296 0 13.2709 0 13.8128 0C13.8778 0.014219 13.9428 0.031485 14.0083 0.0421493C14.6756 0.145745 15.3525 0.207192 16.0091 0.357507C21.0162 1.50214 24.9564 5.69421 25.8035 10.7592C25.8827 11.233 25.9355 11.7114 26.0005 12.1877C26.0005 12.7123 26.0005 13.2374 26.0005 13.762Z" fill="#303030"/>
<path d="M12.9977 11.9846C14.5201 11.9846 16.0426 11.9821 17.5645 11.9861C18.0581 11.9877 18.4405 12.2979 18.5573 12.7707C18.665 13.2059 18.4624 13.6802 18.0521 13.8839C17.8987 13.96 17.7143 14.0098 17.5437 14.0098C14.5161 14.0174 11.4884 14.0169 8.4603 14.0139C7.86107 14.0134 7.4152 13.5716 7.41419 13.0013C7.41317 12.4198 7.86412 11.9861 8.48061 11.9851C9.98681 11.9831 11.492 11.9846 12.9977 11.9846Z" fill="#303030"/>
<path d="M12.9733 9.95331C11.4682 9.95331 9.96247 9.95737 8.45728 9.95128C7.72906 9.94874 7.24409 9.28197 7.46906 8.61215C7.61023 8.19218 7.98805 7.92507 8.46033 7.92304C9.2637 7.91948 10.0671 7.92202 10.8705 7.92202C13.0861 7.92202 15.3022 7.91999 17.5178 7.92304C18.2649 7.92405 18.759 8.5827 18.5315 9.26216C18.3888 9.68823 18.0069 9.95179 17.5148 9.95229C16.001 9.95433 14.4872 9.95331 12.9733 9.95331Z" fill="#303030"/>
<path d="M13.0012 18.0785C11.4874 18.0785 9.97358 18.0825 8.45976 18.0769C7.73053 18.0744 7.24505 17.4107 7.46849 16.7404C7.60611 16.328 7.97987 16.0528 8.43234 16.0492C9.12603 16.0436 9.8192 16.0477 10.5129 16.0477C12.8473 16.0477 15.1813 16.0462 17.5158 16.0487C18.2638 16.0497 18.7584 16.7058 18.5324 17.3858C18.3907 17.8129 18.0083 18.0775 17.5178 18.0785C16.0116 18.0795 14.5064 18.0785 13.0012 18.0785Z" fill="#303030"/>
</svg>
