<svg width="22" height="38" viewBox="0 0 22 38" fill="none" xmlns="http://www.w3.org/2000/svg">
<path d="M0.767822 37.0189C0.767822 24.846 0.767822 12.6739 0.767822 0.456328C0.918679 0.456328 1.04454 0.456328 1.1713 0.456328C3.19492 0.456328 5.21764 0.463469 7.24037 0.448294C7.54298 0.445616 7.66527 0.545592 7.76881 0.820526C9.93704 6.62984 12.1151 12.4356 14.2922 18.2422C14.3324 18.3502 14.3788 18.4556 14.4779 18.5538C14.4779 12.532 14.4779 6.51112 14.4779 0.473288C16.7711 0.473288 19.0277 0.473288 21.3343 0.473288C21.3343 12.657 21.3343 24.8379 21.3343 37.0189C19.0491 37.0189 16.764 37.0189 14.4788 37.0189C12.2142 30.9811 9.95043 24.9442 7.6858 18.9063C7.66527 18.9126 7.64384 18.9188 7.62331 18.9251C7.62331 24.9567 7.62331 30.9883 7.62331 37.0189C5.33815 37.0189 3.05299 37.0189 0.767822 37.0189Z" fill="white"/>
</svg>
