<svg width="30" height="37" viewBox="0 0 30 37" fill="none" xmlns="http://www.w3.org/2000/svg">
<path d="M7.25287 36.3713C7.16439 36.0295 7.04208 35.6929 6.9935 35.3459C6.72372 33.4063 6.5268 31.4545 6.7749 29.5044C6.91976 28.3645 7.22077 27.2412 7.49229 26.1204C8.15937 23.3714 8.85335 20.6293 9.5239 17.8812C9.5664 17.7077 9.54385 17.4943 9.48226 17.3243C8.77527 15.3794 8.6547 13.4372 9.57334 11.5305C10.1519 10.3308 11.055 9.47632 12.4134 9.2022C14.2421 8.83353 15.754 10.0072 15.8538 11.8679C15.9067 12.8551 15.6708 13.7963 15.3932 14.728C14.9647 16.1662 14.5188 17.5993 14.079 19.0332C13.28 21.6373 15.3732 23.3835 17.6096 23.2283C20.0532 23.0582 21.7179 21.7163 22.9046 19.6881C23.8874 18.0079 24.2995 16.1584 24.4044 14.2283C24.4799 12.8404 24.3619 11.4836 23.8657 10.172C23.0598 8.03979 21.6103 6.47922 19.5423 5.57706C16.2979 4.16048 13.0146 4.23075 9.86048 5.81734C7.02386 7.24433 5.34965 9.62032 4.90117 12.7848C4.58714 14.9977 5.09548 17.0311 6.4548 18.8276C6.6387 19.0714 6.68815 19.3203 6.61181 19.6075C6.4175 20.3439 6.23013 21.083 6.03061 21.8178C5.89181 22.3304 5.68102 22.425 5.1909 22.1951C4.0363 21.653 3.15929 20.7924 2.47313 19.7384C0.90735 17.3286 0.330485 14.6924 0.837085 11.8592C1.7887 6.53734 5.01307 3.20974 10.0808 1.62227C13.2202 0.638567 16.435 0.537074 19.6308 1.35509C23.1015 2.24338 25.9242 4.11364 27.8248 7.20616C29.0653 9.22475 29.6127 11.4463 29.5147 13.8223C29.4166 16.2018 28.884 18.4659 27.7242 20.5573C26.063 23.5527 23.6358 25.6025 20.2614 26.398C18.4389 26.8274 16.6172 26.8395 14.8614 26.0432C14.0165 25.6598 13.2662 25.1592 12.7405 24.3725C12.7153 24.3343 12.7014 24.2874 12.6095 24.2831C12.3033 25.4039 11.9519 26.5142 11.6986 27.6463C10.9934 30.7995 9.43195 33.5329 7.62415 36.1535C7.5721 36.2281 7.51485 36.2993 7.4602 36.3721C7.39166 36.3713 7.32227 36.3713 7.25287 36.3713Z" fill="white"/>
</svg>
