<svg width="37" height="33" viewBox="0 0 37 33" fill="none" xmlns="http://www.w3.org/2000/svg">
<path d="M20.887 2.39745C20.3046 5.19045 19.7222 7.97991 19.1397 10.7741C20.0534 10.8778 20.9448 10.9521 21.8266 11.0853C24.5135 11.4921 26.9953 12.4471 29.266 13.9408C29.5206 14.1082 29.6798 14.1365 29.9474 13.9279C31.7407 12.539 34.2967 12.9422 35.6018 14.7968C36.9069 16.6513 36.4236 19.0965 34.5124 20.3757C34.3957 20.4535 34.2778 20.6421 34.2825 20.7742C34.4181 24.0883 33.0741 26.7139 30.5688 28.7959C28.1247 30.8261 25.2669 31.9415 22.1697 32.4567C18.1211 33.1299 14.1538 32.8092 10.3304 31.2518C7.70247 30.1801 5.4353 28.6226 3.84486 26.2034C2.78731 24.5964 2.39118 22.8114 2.45013 20.9133C2.45956 20.6221 2.39354 20.4794 2.13652 20.3297C0.626248 19.4514 -0.0834967 17.934 0.181773 16.221C0.421106 14.6718 1.67436 13.3419 3.26126 13.0094C4.46382 12.7571 5.57678 13.0059 6.54354 13.7793C6.75693 13.9491 6.89605 13.9491 7.1177 13.8064C10.1689 11.8399 13.503 10.7647 17.1378 10.6609C17.4078 10.6527 17.4774 10.5454 17.5269 10.3072C18.1353 7.38334 18.7566 4.46184 19.3696 1.53915C19.5583 0.63959 19.866 0.430911 20.7573 0.608937C22.7486 1.00625 24.7411 1.39649 26.7324 1.79381C26.9682 1.84097 27.1202 1.81503 27.2888 1.59338C28.0599 0.575925 29.4487 0.249349 30.5817 0.783426C31.6947 1.30925 32.3313 2.58019 32.0896 3.79689C31.8515 5.00417 30.7291 5.92613 29.4629 5.95796C28.2308 5.98861 27.1356 5.13268 26.7972 3.90772C26.7524 3.74738 26.5968 3.52691 26.4577 3.49743C24.6597 3.11426 22.8547 2.75939 21.052 2.39863C21.0096 2.39037 20.9672 2.39745 20.887 2.39745ZM27.1462 19.8876C27.145 18.349 25.9248 17.1111 24.4157 17.1158C22.9396 17.1205 21.7241 18.3372 21.7111 19.8204C21.6981 21.3307 22.9903 22.5945 24.589 22.6346C25.9307 22.67 27.1474 21.3637 27.1462 19.8876ZM14.4592 19.7096C14.4651 18.2193 13.2696 17.0085 11.7794 16.9932C10.2691 16.9779 9.0359 18.1887 9.03118 19.6895C9.02764 21.168 10.2408 22.3988 11.7157 22.413C13.2224 22.4271 14.4533 21.2139 14.4592 19.7096ZM18.2579 29.3041C19.9532 29.3701 21.5708 29.0447 23.0881 28.2878C23.6788 27.9931 24.2082 27.5757 24.8024 27.2927C25.1561 27.1253 25.1914 26.9025 25.1431 26.5995C25.09 26.2682 24.8802 26.0466 24.5524 26.0466C24.319 26.0466 24.0466 26.1126 23.8592 26.2458C21.4034 27.9789 18.6776 28.1958 15.8315 27.6688C14.6915 27.4578 13.6563 26.952 12.6978 26.2989C12.6129 26.2411 12.5292 26.1786 12.4396 26.1291C12.0529 25.9181 11.6497 26.0041 11.4269 26.3413C11.204 26.6773 11.2854 27.0782 11.6509 27.3399C13.6268 28.7559 15.8421 29.3666 18.2579 29.3041Z" fill="white"/>
</svg>
