<svg width="29" height="29" viewBox="0 0 29 29" fill="none" xmlns="http://www.w3.org/2000/svg">
<path d="M20.6976 23.8469C20.2897 23.7628 19.9693 23.71 19.6557 23.6295C19.0304 23.4701 18.6234 22.9072 18.6849 22.3122C18.7516 21.6687 19.2573 21.1403 19.9069 21.1421C20.521 21.1438 21.135 21.2347 21.7473 21.2988C22.6836 21.3967 23.6172 21.5093 24.5535 21.608C25.2818 21.6842 25.4143 21.8029 25.4984 22.533C25.6664 23.9837 25.8318 25.4344 25.9903 26.8859C26.0535 27.4602 25.8621 27.9382 25.3606 28.2483C24.9285 28.5151 24.4755 28.5047 24.0399 28.2396C23.7168 28.043 23.5375 27.7442 23.4657 27.3744C23.3721 26.8894 23.2734 26.4061 23.1695 25.8865C22.7858 26.1541 22.4411 26.4079 22.0825 26.6426C13.762 32.0911 2.5012 27.2462 0.726596 17.4603C0.361975 15.4484 0.437324 13.4564 0.936189 11.4766C1.16917 10.5533 1.95124 10.0415 2.83291 10.2372C3.68861 10.4269 4.19613 11.2652 3.97095 12.1911C3.6453 13.5309 3.53704 14.8785 3.71199 16.247C4.07748 19.1016 5.36621 21.4608 7.57126 23.2995C11.1932 26.3178 16.3906 26.6244 20.3417 24.0833C20.4396 24.0192 20.5348 23.9551 20.6976 23.8469Z" fill="white"/>
<path d="M8.32228 5.97865C8.66005 6.04448 8.92161 6.09644 9.18317 6.14754C9.928 6.29131 10.4026 6.86466 10.3255 7.52548C10.2398 8.25386 9.6344 8.75965 8.86445 8.6869C7.52895 8.56132 6.19691 8.40196 4.864 8.25559C4.6163 8.22874 4.3686 8.20362 4.1235 8.16465C3.78226 8.11009 3.57873 7.90829 3.53976 7.56532C3.36048 5.99597 3.17774 4.4275 3.02097 2.85642C2.94562 2.12284 3.45315 1.48541 4.1183 1.4014C4.83542 1.31132 5.39491 1.7357 5.55341 2.49699C5.65041 2.96121 5.74048 3.4263 5.84354 3.93643C5.95181 3.86454 6.03841 3.81171 6.11896 3.75195C8.96145 1.6387 12.153 0.697269 15.6823 0.959693C21.9337 1.42391 27.2298 6.26446 28.2873 12.4336C28.6302 14.4368 28.5635 16.4193 28.0664 18.3879C27.8707 19.1613 27.2211 19.6663 26.4919 19.6307C25.7081 19.5918 25.0853 19.0513 25.0013 18.2649C24.9684 17.9531 25.0429 17.6206 25.1157 17.3079C26.4953 11.4099 22.6326 5.42263 16.6809 4.25515C13.8488 3.69998 11.1994 4.1772 8.74146 5.69718C8.61761 5.77339 8.49896 5.85913 8.32228 5.97865Z" fill="white"/>
</svg>
