<svg width="25" height="26" viewBox="0 0 25 26" fill="none" xmlns="http://www.w3.org/2000/svg">
<g opacity="0.5">
<path d="M14.3225 25.5745C12.7754 25.5745 11.2283 25.5745 9.68117 25.5745C9.65216 25.561 9.62509 25.5429 9.59479 25.5352C8.72196 25.3257 8.18626 24.7481 8.04251 23.863C7.97934 23.4736 7.91423 23.0849 7.84783 22.6962C7.68152 21.7209 6.79256 21.2032 5.85978 21.5397C5.45108 21.6874 5.04883 21.8511 4.63884 21.9936C3.72153 22.3114 2.79067 21.9774 2.30075 21.1433C1.61615 19.9771 0.940571 18.8058 0.27273 17.63C-0.213325 16.7746 -0.0328269 15.8051 0.716239 15.1649C1.04694 14.8826 1.38988 14.6144 1.72058 14.3321C2.45804 13.7036 2.45804 12.6895 1.72058 12.0623C1.40149 11.7909 1.07272 11.5318 0.752983 11.261C-0.0437857 10.5867 -0.219771 9.62495 0.296581 8.72246C0.952175 7.57695 1.61164 6.43336 2.27625 5.293C2.79841 4.39825 3.73442 4.06691 4.70588 4.42404C5.1062 4.57101 5.50072 4.73217 5.90361 4.87141C6.79966 5.18019 7.68216 4.65482 7.84396 3.72203C7.91294 3.32558 7.9774 2.92849 8.04187 2.53139C8.18562 1.64631 8.72067 1.06871 9.5935 0.858563C9.6238 0.851472 9.65152 0.832778 9.68053 0.819885C11.2277 0.819885 12.7748 0.819885 14.3219 0.819885C14.3509 0.832778 14.3786 0.851472 14.4089 0.858563C15.2805 1.06742 15.8168 1.64566 15.9612 2.53075C16.0244 2.9201 16.0888 3.30882 16.1559 3.69753C16.3235 4.67287 17.2105 5.18986 18.1446 4.85336C18.5455 4.70897 18.9407 4.54845 19.3423 4.40599C20.2654 4.07787 21.2079 4.40728 21.7036 5.25046C22.3889 6.41596 23.0644 7.58726 23.7316 8.76372C24.217 9.61915 24.0365 10.5867 23.2881 11.2294C22.9581 11.5124 22.6145 11.78 22.2838 12.0623C21.5457 12.6921 21.5463 13.7003 22.2844 14.3314C22.6029 14.6035 22.9323 14.8626 23.252 15.1327C24.0481 15.8064 24.2241 16.7694 23.7078 17.6713C23.0528 18.8168 22.3927 19.9604 21.7281 21.1007C21.2066 21.9948 20.2693 22.3255 19.2972 21.9691C18.8969 21.8221 18.5017 21.6609 18.0995 21.5223C17.2041 21.2129 16.3203 21.7396 16.1598 22.6717C16.0914 23.0682 16.027 23.4653 15.9625 23.8624C15.8181 24.7481 15.2818 25.3257 14.4102 25.5345C14.3793 25.5429 14.3516 25.561 14.3225 25.5745ZM14.035 23.6335C14.1008 23.2416 14.1698 22.8619 14.2271 22.4803C14.534 20.4393 16.3744 19.1314 18.3431 19.5904C18.8646 19.7115 19.3629 19.9346 19.867 20.1222C19.9915 20.1686 20.0546 20.1531 20.1165 20.0364C20.2338 19.8166 20.3634 19.6033 20.4878 19.3867C21.01 18.4809 21.5328 17.5752 22.0614 16.6586C21.7371 16.391 21.4219 16.1293 21.1047 15.8689C19.3571 14.4339 19.3578 11.9592 21.1054 10.5249C21.4219 10.2651 21.7371 10.0034 22.062 9.73518C21.4039 8.59547 20.7534 7.46607 20.0952 6.34183C20.0669 6.29412 19.9483 6.25609 19.8922 6.27478C19.557 6.38631 19.2256 6.51265 18.8962 6.64094C18.2742 6.88203 17.6366 6.97228 16.9778 6.84142C15.4938 6.54618 14.4566 5.43676 14.2265 3.91349C14.1685 3.528 14.0976 3.14379 14.0318 2.75443C13.3324 2.75443 12.6639 2.75443 11.9961 2.75443C11.3231 2.75443 10.6494 2.75443 9.96932 2.75443C9.90164 3.16378 9.8346 3.54411 9.77593 3.92573C9.46458 5.96278 7.61383 7.26752 5.64963 6.80338C5.15197 6.68606 4.67558 6.47398 4.19533 6.28961C4.02773 6.22515 3.94779 6.24964 3.8569 6.4108C3.25739 7.468 2.64563 8.51811 2.03903 9.5708C2.00809 9.62495 1.9823 9.68168 1.95136 9.74292C2.25756 9.99562 2.55474 10.2425 2.8532 10.4875C4.66527 11.9766 4.66463 14.4185 2.85127 15.9095C2.54893 16.1583 2.24854 16.4084 1.94362 16.6605C2.60308 17.8034 3.25159 18.9251 3.89622 20.0487C3.95746 20.1557 4.01612 20.1692 4.12829 20.1248C4.49444 19.9797 4.86511 19.8456 5.23577 19.7109C7.23221 18.985 9.34661 20.1918 9.73726 22.2824C9.82106 22.731 9.8939 23.181 9.9719 23.6335C11.3301 23.6335 12.6658 23.6335 14.035 23.6335Z" fill="#142352"/>
<path d="M16.7709 13.3542C16.669 16.0023 14.476 18.0619 11.851 17.9607C9.17258 17.8576 7.1104 15.6162 7.22965 13.028C7.35213 10.3695 9.55614 8.32665 12.1643 8.4343C14.8338 8.54454 16.8992 10.775 16.7709 13.3542ZM14.8415 13.1943C14.8389 11.6452 13.5619 10.3656 12.0109 10.3579C10.4573 10.3502 9.16033 11.6446 9.16227 13.2007C9.1642 14.7479 10.4438 16.0307 11.9922 16.0378C13.5471 16.0449 14.8441 14.7498 14.8415 13.1943Z" fill="#142352"/>
</g>
</svg>
