<svg width="39" height="38" viewBox="0 0 39 38" fill="none" xmlns="http://www.w3.org/2000/svg">
<path d="M38.3662 18.0799C38.3662 18.8129 38.3662 19.5412 38.3662 20.2742C38.3472 20.3789 38.3091 20.4836 38.3043 20.5883C38.1234 23.2158 37.4238 25.7004 36.1481 27.9994C33.2256 33.2637 28.7942 36.4956 22.8635 37.6142C22.159 37.7475 21.445 37.8094 20.7358 37.9046C20.0028 37.9046 19.2746 37.9046 18.5416 37.9046C18.4464 37.8855 18.3559 37.8522 18.2607 37.8427C15.6476 37.6618 13.163 36.9954 10.8783 35.715C4.71905 32.2689 1.36814 27.0046 0.934998 19.96C0.725566 16.5806 1.45382 13.3487 3.11023 10.3928C6.54682 4.25265 11.8207 0.916018 18.8462 0.482875C22.2257 0.273443 25.4481 1.01597 28.4182 2.65335C33.7016 5.5616 36.9287 9.99299 38.0663 15.9237C38.2091 16.6329 38.271 17.3612 38.3662 18.0799ZM16.4092 10.3262C15.8951 10.3262 15.3858 10.3119 14.8717 10.3262C12.4395 10.3976 10.0453 10.7308 7.70346 11.4162C7.40835 11.5019 7.10848 11.6542 6.87525 11.8541C6.25647 12.3824 6.1232 13.3582 6.52302 14.096C6.93713 14.8623 7.7463 15.1669 8.6935 14.8956C10.6974 14.3292 12.7441 14.0579 14.8194 13.9532C17.0279 13.8389 19.227 13.9532 21.4213 14.2625C24.4818 14.7004 27.4281 15.4715 30.1508 16.9947C30.4316 17.1518 30.7505 17.285 31.0694 17.3231C31.85 17.4183 32.5973 16.9233 32.8591 16.2141C33.1447 15.4382 32.9257 14.5053 32.2641 14.0817C31.5977 13.658 30.9028 13.2725 30.1841 12.9488C25.8003 10.9973 21.1642 10.3214 16.4092 10.3262ZM16.0427 16.7424C15.7856 16.7424 15.5286 16.7424 15.2763 16.7424C13.0583 16.7614 10.8925 17.1565 8.76014 17.742C7.82721 17.9942 7.37503 18.8177 7.63682 19.7221C7.87005 20.5265 8.66494 20.9453 9.52171 20.6978C13.282 19.6173 17.0898 19.5459 20.9167 20.2409C23.4775 20.7073 25.8907 21.5879 28.1469 22.8921C28.8846 23.3157 29.7081 23.1015 30.1222 22.4209C30.5411 21.7402 30.3745 20.7835 29.7033 20.3408C29.1464 19.9743 28.561 19.6411 27.9612 19.3508C24.1962 17.5278 20.2027 16.7329 16.0427 16.7424ZM16.3187 22.8017C15.3715 22.8635 14.4148 22.8683 13.4771 22.9968C12.0444 23.192 10.6165 23.4395 9.19804 23.7298C8.53643 23.8631 8.21752 24.5485 8.38411 25.2292C8.53167 25.8479 9.1076 26.1859 9.79302 26.0812C11.478 25.8241 13.1534 25.4719 14.8479 25.3529C18.7938 25.0816 22.5684 25.748 26.0335 27.7757C26.2001 27.8756 26.3762 27.9708 26.5619 28.0184C27.0854 28.166 27.6471 27.9042 27.8851 27.4234C28.1516 26.8903 28.0041 26.143 27.4995 25.8194C26.9712 25.4767 26.4143 25.1673 25.8431 24.8912C22.8397 23.43 19.6458 22.8397 16.3187 22.8017Z" fill="white"/>
</svg>
