<svg xmlns="http://www.w3.org/2000/svg" width="327.042" height="327.067" viewBox="0 0 327.042 327.067">
  <path id="Sun-Icon-SVG-3k_cs" data-name="Sun-Icon-SVG-3k,cs" d="M150.749,313.821V247.042a12.264,12.264,0,1,1,24.527,0v66.779a12.264,12.264,0,0,1-24.527,0Zm110.186-35.5-47.211-47.243a12.266,12.266,0,1,1,17.355-17.337l47.227,47.209a12.283,12.283,0,1,1-17.372,17.371Zm-213.218,0a12.3,12.3,0,0,1,0-17.371l47.227-47.209A12.266,12.266,0,1,1,112.3,231.075L65.073,278.317a12.251,12.251,0,0,1-17.355,0Zm66.189-115.292a49.089,49.089,0,1,1,49.105,49.122A49.14,49.14,0,0,1,113.907,163.025Zm24.545,0a24.553,24.553,0,1,0,24.561-24.543A24.577,24.577,0,0,0,138.452,163.025Zm108.528,12.3a12.272,12.272,0,0,1,0-24.544h66.8a12.272,12.272,0,0,1,0,24.544Zm-234.733,0a12.272,12.272,0,0,1,0-24.544H79.029a12.272,12.272,0,0,1,0,24.544Zm201.5-62.991a12.228,12.228,0,0,1,0-17.337l47.21-47.244a12.284,12.284,0,1,1,17.372,17.372L231.08,112.332a12.25,12.25,0,0,1-8.678,3.6A12.123,12.123,0,0,1,213.742,112.332Zm-118.8,0L47.718,65.123A12.278,12.278,0,0,1,65.073,47.75L112.3,94.994a12.266,12.266,0,1,1-17.355,17.337Zm55.8-33.3V12.28a12.255,12.255,0,1,1,24.51,0V79.027a12.255,12.255,0,1,1-24.51,0Z" transform="translate(0.5 0.5)" fill="#1a171b" stroke="rgba(0,0,0,0)" stroke-miterlimit="10" stroke-width="1"/>
</svg>
