<svg width="14" height="17" viewBox="0 0 14 17" fill="none" xmlns="http://www.w3.org/2000/svg">
<path d="M4.84461 16.9996C4.49126 16.9442 4.1321 16.9137 3.78499 16.8291C1.81873 16.351 0.28397 14.5319 0.0382913 12.4069C-0.288864 9.5718 1.51361 7.01648 4.17242 6.54721C4.70077 6.4538 5.39208 6.45602 5.7288 6.55474C5.7288 7.47425 5.7288 8.39641 5.7288 9.33583C5.59619 9.30883 5.4719 9.27784 5.34594 9.2588C3.86065 9.03391 2.58487 10.2487 2.6335 11.8393C2.67216 13.0953 3.62203 14.1312 4.83214 14.2371C5.98653 14.338 7.09146 13.4442 7.30305 12.228C7.33963 12.0178 7.35044 11.7995 7.35086 11.5848C7.35543 7.80583 7.35626 4.02688 7.35876 0.247917C7.35876 0.16513 7.36624 0.0827865 7.36998 0C8.23256 0 9.09513 0 9.95771 0C10.0142 2.35388 11.6596 4.15393 13.8516 4.2531C13.9862 4.2593 14.0008 4.31596 14 4.43328C13.9966 5.23547 13.9983 6.0381 13.9983 6.84029C13.9983 6.89385 13.9983 6.94786 13.9983 7.01781C12.4968 7.01073 11.1699 6.52021 9.96062 5.56573C9.96062 5.65471 9.96062 5.71315 9.96062 5.77115C9.96602 7.71331 9.97309 9.65547 9.97434 11.5976C9.97434 11.8681 9.95937 12.1399 9.92902 12.4082C9.68418 14.5841 8.07043 16.4378 6.04764 16.8645C5.75374 16.9265 5.45361 16.9557 5.15638 17C5.05246 16.9996 4.94853 16.9996 4.84461 16.9996Z" fill="white"/>
</svg>
