<svg width="34" height="28" viewBox="0 0 34 28" fill="none" xmlns="http://www.w3.org/2000/svg">
<path d="M0 24.2654C3.68321 24.5781 6.99143 23.6948 10.0023 21.4229C6.84056 21.131 4.76336 19.5414 3.5881 16.6082C4.62342 16.6082 5.59096 16.6082 6.55959 16.6082C6.56834 16.5612 6.57818 16.5131 6.58692 16.4661C5.02246 16.0703 3.72585 15.2602 2.73316 13.9997C1.74813 12.7479 1.24304 11.3223 1.23211 9.65942C2.19856 10.123 3.15079 10.4564 4.27576 10.4695C2.53419 9.06796 1.45404 7.3723 1.27912 5.19233C1.16979 3.82247 1.53494 2.551 2.22151 1.30687C5.94846 5.65478 10.5937 8.10479 16.2437 8.46229C16.2437 7.69482 16.1967 6.98638 16.2514 6.28669C16.5345 2.72265 19.5946 -0.0269143 23.1816 0.032122C25.0139 0.0616402 26.586 0.723066 27.9045 1.98797C28.0696 2.1465 28.2084 2.19679 28.4424 2.13884C29.7215 1.82508 30.9471 1.38012 32.1048 0.748211C32.1934 0.700107 32.2907 0.665123 32.4722 0.584221C31.9365 2.19897 30.9788 3.37205 29.6384 4.25759C29.6592 4.30351 29.6811 4.34833 29.7018 4.39425C30.8968 4.06299 32.0917 3.73064 33.3216 3.38954C33.2276 3.53057 33.1336 3.68144 33.0297 3.82575C32.2491 4.90918 31.321 5.85048 30.2572 6.65403C30.0211 6.83223 29.9467 7.00606 29.9555 7.29687C30.2004 14.9771 25.636 22.5534 18.709 25.5938C12.4676 28.3335 6.30158 27.965 0.354218 24.5661C0.248171 24.5049 0.144311 24.4382 0.0426373 24.3693C0.0273316 24.3573 0.0240518 24.3234 0 24.2654Z" fill="white"/>
</svg>
